<?xml version="1.0" encoding="UTF-8" standalone="no"?>
<!-- Created with Inkscape (http://www.inkscape.org/) -->

<svg
   xmlns:dc="http://purl.org/dc/elements/1.1/"
   xmlns:cc="http://creativecommons.org/ns#"
   xmlns:rdf="http://www.w3.org/1999/02/22-rdf-syntax-ns#"
   xmlns:svg="http://www.w3.org/2000/svg"
   xmlns="http://www.w3.org/2000/svg"
   xmlns:sodipodi="http://sodipodi.sourceforge.net/DTD/sodipodi-0.dtd"
   xmlns:inkscape="http://www.inkscape.org/namespaces/inkscape"
   id="svg2"
   version="1.1"
   inkscape:version="0.48.2 r9819"
   width="308.07861"
   height="123.60704"
   xml:space="preserve"
   sodipodi:docname="DoarIsrael.svg"><metadata
     id="metadata8"><rdf:RDF><cc:Work
         rdf:about=""><dc:format>image/svg+xml</dc:format><dc:type
           rdf:resource="http://purl.org/dc/dcmitype/StillImage" /><dc:title></dc:title></cc:Work></rdf:RDF></metadata><defs
     id="defs6"><clipPath
       clipPathUnits="userSpaceOnUse"
       id="clipPath16"><path
         d="m 248.854,468.33 198.552,0 0,184.819 -198.552,0 0,-184.819 z"
         id="path18"
         inkscape:connector-curvature="0" /></clipPath><clipPath
       clipPathUnits="userSpaceOnUse"
       id="clipPath30"><path
         d="m 36,65.197 411.512,0 0,198.425 -411.512,0 0,-198.425 z"
         id="path32"
         inkscape:connector-curvature="0" /></clipPath><clipPath
       clipPathUnits="userSpaceOnUse"
       id="clipPath44"><path
         d="m 461.921,65.197 198.552,0 0,131.339 -198.552,0 0,-131.339 z"
         id="path46"
         inkscape:connector-curvature="0" /></clipPath><clipPath
       clipPathUnits="userSpaceOnUse"
       id="clipPath60"><path
         d="m 0,0 702.992,0 0,972.283 L 0,972.283 0,0 z"
         id="path62"
         inkscape:connector-curvature="0" /></clipPath><clipPath
       clipPathUnits="userSpaceOnUse"
       id="clipPath72"><path
         d="m 0,0 702.992,0 0,972.284 L 0,972.284 0,0 z"
         id="path74"
         inkscape:connector-curvature="0" /></clipPath><clipPath
       clipPathUnits="userSpaceOnUse"
       id="clipPath84"><path
         d="m 0,0 702.992,0 0,972.283 L 0,972.283 0,0 z"
         id="path86"
         inkscape:connector-curvature="0" /></clipPath><clipPath
       clipPathUnits="userSpaceOnUse"
       id="clipPath256"><path
         d="m 248.576,841.89 199.32,0 0,99.212 -199.32,0 0,-99.212 z"
         id="path258"
         inkscape:connector-curvature="0" /></clipPath></defs><sodipodi:namedview
     pagecolor="#ffffff"
     bordercolor="#666666"
     borderopacity="1"
     objecttolerance="10"
     gridtolerance="10"
     guidetolerance="10"
     inkscape:pageopacity="0"
     inkscape:pageshadow="2"
     inkscape:window-width="1280"
     inkscape:window-height="962"
     id="namedview4"
     showgrid="false"
     inkscape:zoom="0.57696312"
     inkscape:cx="37.941863"
     inkscape:cy="-55.641112"
     inkscape:window-x="-8"
     inkscape:window-y="-8"
     inkscape:window-maximized="1"
     inkscape:current-layer="g10"
     fit-margin-top="0"
     fit-margin-left="0"
     fit-margin-right="0"
     fit-margin-bottom="0" /><g
     id="g10"
     inkscape:groupmode="layer"
     inkscape:label="doar"
     transform="matrix(1.25,0,0,-1.25,-310.72074,1176.3777)"><g
       id="g3497"
       transform="matrix(1.2365217,0,0,1.2365217,-58.79377,-222.59113)"><path
         d="m 333.7809,931.8052 c 1.012,-0.364 2.751,-0.935 4.082,-1.064 2.116,-0.206 3.963,0.15 5.007,0.665 l 0.085,-0.793 c -0.771,-0.776 -2.288,-1.445 -4.089,-1.709 -1.3,-0.191 -2.768,0.01 -3.734,0.172 -0.969,0.161 -2.808,0.589 -5.518,-0.014 -2.709,-0.601 -5.406,-2.514 -6.539,-3.497 -0.287,-0.289 -0.705,-0.67 -1.056,-1.014 0.715,-0.02 1.536,-0.101 2.397,-0.245 0.697,-0.116 3.047,-0.673 3.653,-0.744 2.03,-0.238 3.835,0.013 4.837,0.582 l -0.011,-0.746 c -0.479,-0.862 -2.597,-1.413 -5.328,-1.431 -0.812,-0.092 -3.852,0.194 -4.106,0.194 -1.249,0 -2.315,-0.407 -2.726,-0.976 -1.692,-1.963 -0.226,-6.314 3.373,-9.863 l -11.875,-0.437 c -0.531,-0.042 -3.094,-0.049 -3.446,-0.029 -4.815,0.268 -7.775,2.148 -7.543,4.2 0.068,0.581 0.357,1.286 1.093,1.58 l 12.314,4.853 c 2.047,2.996 5.748,6.785 11.165,9.785 2.312,1.281 4.611,2.292 6.799,3.01 0,0 1.909,0.573 5.458,2.02 3.31,1.349 5.425,4.245 5.883,4.798 l 0.243,-1.636 c -0.187,-0.551 -1.42,-3.628 -4.395,-5.486 -3.018,-1.886 -5.847,-2.146 -6.023,-2.175"
         style="fill:#ca151d;fill-opacity:1;fill-rule:evenodd;stroke:none"
         id="path262"
         inkscape:connector-curvature="0" /><path
         d="m 319.2596,898.6102 c -2.897,0.1 -5.815,0.151 -8.754,0.151 -24.379,0 -45.945,-3.503 -61.929,-9.312 14.434,7.932 34.413,13.775 56.817,16.218 3.766,0.409 7.805,0.706 11.693,0.917 l 2.173,-7.974 z"
         style="fill:#ca151d;fill-opacity:1;fill-rule:nonzero;stroke:none"
         id="path266"
         inkscape:connector-curvature="0" /><path
         d="m 384.0851,890.9354 0.031,0.07 c 9.462,-2.379 18.47,-5.326 26.813,-8.699 14.801,-5.98 27.512,-13.3 36.967,-21.175 -14.421,8.655 -34.626,16.138 -58.215,20.801 0,0 -2.469,0.477 -3.299,0.632 l -2.297,8.371 z"
         style="fill:#ca151d;fill-opacity:1;fill-rule:nonzero;stroke:none"
         id="path270"
         inkscape:connector-curvature="0" /><path
         d="m 331.0016,902.6119 c -0.065,0.23 -0.339,0.438 -0.579,0.438 l -9.83,0 -1.035,3.676 10.107,0 c 2.646,0 4.21,-1.025 4.967,-3.916 0.916,-3.507 1.721,-6.42 2.265,-8.42 l -3.691,0 -2.204,8.222 z"
         style="fill:#ca151d;fill-opacity:1;fill-rule:evenodd;stroke:none"
         id="path274"
         inkscape:connector-curvature="0" /><path
         d="m 360.5136,903.0495 -0.986,3.677 13.686,0 0.968,-3.677 -0.586,0 c -0.42,0 -0.692,-0.357 -0.578,-0.761 l 2.139,-7.897 -3.713,0 -2.206,8.219 c -0.065,0.229 -0.339,0.437 -0.577,0.437 l -8.147,0.002 z"
         style="fill:#ca151d;fill-opacity:1;fill-rule:evenodd;stroke:none"
         id="path278"
         inkscape:connector-curvature="0" /><path
         d="m 341.6192,905.6849 5.116,-4.062 c 0.41,-0.317 0.851,-0.1 0.925,0.383 l 0.727,4.721 4.036,0 -1.342,-8.168 c -0.021,-0.167 0.092,-0.452 0.222,-0.556 l 4.592,-3.611 -5.17,0 -9.287,7.36 c -0.513,0.399 -1.122,-0.01 -0.947,-0.634 l 1.812,-6.726 -3.7,0 -2.614,9.743 c -0.369,1.318 -0.046,2.285 0.849,2.779 1.732,0.632 3.309,-0.107 4.781,-1.229"
         style="fill:#ca151d;fill-opacity:1;fill-rule:evenodd;stroke:none"
         id="path282"
         inkscape:connector-curvature="0" /><path
         d="m 354.056,906.7264 3.685,0 3.313,-12.335 -3.696,0 -3.302,12.335 z"
         style="fill:#ca151d;fill-opacity:1;fill-rule:evenodd;stroke:none"
         id="path286"
         inkscape:connector-curvature="0" /><path
         d="m 351.7025,886.9568 c -0.065,0.229 -0.339,0.438 -0.577,0.438 l -9.352,0 -1.038,3.677 9.63,0 c 2.647,0 4.21,-1.027 4.967,-3.917 0.915,-3.507 1.722,-6.419 2.265,-8.42 l -3.693,0 -2.202,8.222 z"
         style="fill:#ca151d;fill-opacity:1;fill-rule:evenodd;stroke:none"
         id="path290"
         inkscape:connector-curvature="0" /><path
         d="m 365.7073,882.4127 c 0.415,0.008 0.678,0.363 0.564,0.76 -0.859,3.277 -1.613,5.999 -2.13,7.9 l 3.692,0 2.203,-8.222 c 0.066,-0.23 0.339,-0.438 0.578,-0.438 l 3.274,0 c 0.417,0 0.691,0.356 0.577,0.76 l -2.116,7.9 3.7,0 2.273,-8.519 c 0.558,-2.062 -0.677,-3.818 -2.656,-3.818 l -12.463,-0.002 c -2.648,0 -4.212,1.029 -4.967,3.919 -0.919,3.507 -1.722,6.419 -2.268,8.42 l 3.694,0 2.202,-8.222 c 0.065,-0.23 0.337,-0.438 0.577,-0.438 l 3.266,0 z"
         style="fill:#ca151d;fill-opacity:1;fill-rule:evenodd;stroke:none"
         id="path294"
         inkscape:connector-curvature="0" /><path
         d="m 377.7751,891.0722 3.697,0 1.64,-6.14 -3.691,0 -1.646,6.14 z"
         style="fill:#ca151d;fill-opacity:1;fill-rule:evenodd;stroke:none"
         id="path298"
         inkscape:connector-curvature="0" /><path
         d="m 328.9586,890.03 5.116,-4.062 c 0.41,-0.318 0.853,-0.101 0.925,0.383 l 0.727,4.721 4.036,0 -1.341,-8.169 c -0.025,-0.167 0.087,-0.45 0.221,-0.557 l 4.588,-3.611 -5.166,0 -9.288,7.362 c -0.511,0.398 -1.123,-0.01 -0.947,-0.634 l 1.815,-6.728 -3.703,0 -2.612,9.744 c -0.373,1.317 -0.047,2.287 0.85,2.78 1.726,0.63 3.306,-0.106 4.779,-1.229"
         style="fill:#ca151d;fill-opacity:1;fill-rule:evenodd;stroke:none"
         id="path302"
         inkscape:connector-curvature="0" /><path
         d="m 321.9529,887.1552 c 0.48,-1.831 0.572,-2.177 0.617,-2.317 l 0.067,-0.209 0.238,-0.855 0.292,-1.218 c 0.557,-2.061 -0.679,-3.821 -2.658,-3.821 l -4.324,0 -0.999,3.677 3.545,0 c 0.42,0 0.693,0.357 0.579,0.76 l -1.054,3.931 c -0.13,0.164 -0.318,0.292 -0.509,0.292 l -12.924,0 -1.8,6.654 3.72,0 0.683,-2.566 c 0.067,-0.241 0.337,-0.411 0.563,-0.411 l 8.954,0 c 2.692,0 4.256,-1.028 5.01,-3.917"
         style="fill:#ca151d;fill-opacity:1;fill-rule:evenodd;stroke:none"
         id="path306"
         inkscape:connector-curvature="0" /></g></g></svg>