<?xml version="1.0" encoding="UTF-8" standalone="no"?>
<!-- Created with Inkscape (http://www.inkscape.org/) -->
<svg
   xmlns:svg="http://www.w3.org/2000/svg"
   xmlns="http://www.w3.org/2000/svg"
   version="1.0"
   width="744.09448"
   height="579.685"
   id="svg2324">
  <defs
     id="defs2326">
    <linearGradient
       id="linearGradient3318">
      <stop
         style="stop-color:#ffffff;stop-opacity:1"
         offset="0"
         id="stop3320" />
      <stop
         style="stop-color:#fea100;stop-opacity:1"
         offset="1"
         id="stop3322" />
    </linearGradient>
  </defs>
  <g
     transform="translate(-156.3294,-128.54488)"
     id="layer1">
    <g
       transform="translate(17.716536,17.682953)"
       id="g5671">
      <path
         d="M 203.88619,136.79447 L 817.43391,136.79447 C 839.27131,136.79447 856.74111,154.42606 856.74111,176.26336 L 856.74111,625.30339 C 856.74111,646.97887 839.27131,664.61047 817.43391,664.61047 L 203.88619,664.61047 C 182.0489,664.77228 164.57911,646.97887 164.57911,625.30339 L 164.57911,176.26336 C 164.57911,154.42606 182.0489,136.79447 203.88619,136.79447"
         style="fill:#c22227;fill-rule:nonzero;stroke:none"
         id="path4285" />
      <path
         d="M 803.36101,136.79447 C 835.22731,192.27748 853.50601,256.65707 853.50601,325.24248 C 853.50601,474.38316 767.45081,603.30428 642.41191,664.61047 L 203.88619,664.61047 C 182.0489,664.77228 164.57911,646.97887 164.57911,625.30339 L 164.57911,176.26336 C 164.57911,154.42606 182.0489,136.79447 203.88619,136.79447 L 803.36101,136.79447"
         style="fill:#ea1b22;fill-rule:nonzero;stroke:none"
         id="path4287" />
      <path
         d="M 164.57911,176.26336 L 164.57911,625.30339 C 164.57911,646.97887 182.0489,664.77228 203.88619,664.61047 L 512.8438,664.61047 C 639.662,603.95127 727.33481,474.05967 727.33481,323.46306 C 727.33481,255.52477 709.37971,191.95385 678.16041,136.79447 L 203.88619,136.79447 C 182.0489,136.79447 164.57911,154.42606 164.57911,176.26336"
         style="fill:#f1661f;fill-rule:nonzero;stroke:none"
         id="path4289" />
      <path
         d="M 164.57911,176.26336 L 164.57911,496.54408 C 211.16529,546.36547 277.16262,577.42297 350.60059,577.42297 C 491.33,577.42297 605.53111,462.89837 605.36929,321.68377 C 605.53111,248.89266 575.28241,183.38077 526.75501,136.79447 L 203.88619,136.79447 C 182.0489,136.79447 164.57911,154.42606 164.57911,176.26336"
         style="fill:#f68a1c;fill-rule:nonzero;stroke:none"
         id="path4291" />
      <path
         d="M 196.12179,322.97776 C 196.12179,237.40786 265.19251,168.01377 350.60059,168.01377 C 435.84712,168.01377 504.91771,237.40786 504.91771,322.97776 C 504.91771,408.54778 435.84712,477.94187 350.60059,477.94187 C 265.19251,477.94187 196.12179,408.54778 196.12179,322.97776"
         style="fill:#fecf00;fill-rule:nonzero;stroke:none"
         id="path4293" />
      <path
         d="M 427.27391,339.80068 L 427.27391,308.90487 L 372.11439,308.90487 L 372.11439,339.80068 L 427.27391,339.80068"
         style="fill:#211d1e;fill-rule:nonzero;stroke:none"
         id="path4295" />
      <path
         d="M 295.4412,375.38737 C 295.4412,362.28497 305.95551,351.77079 318.8961,351.77079 C 331.99851,351.77079 342.51269,362.28497 342.51269,375.38737 C 342.51269,388.32796 331.99851,399.00409 318.8961,399.00409 C 305.95551,399.00409 295.4412,388.48977 295.4412,375.38737"
         style="fill:#211d1e;fill-rule:nonzero;stroke:none"
         id="path4297" />
      <path
         d="M 295.4412,276.71507 C 295.4412,263.61267 305.95551,253.09836 318.8961,253.09836 C 331.99851,253.09836 342.51269,263.61267 342.51269,276.71507 C 342.51269,289.65566 331.99851,300.33166 318.8961,300.33166 C 305.95551,300.33166 295.4412,289.65566 295.4412,276.71507"
         style="fill:#211d1e;fill-rule:nonzero;stroke:none"
         id="path4299" />
      <path
         d="M 452.34641,568.20277 C 452.34641,578.07009 454.61101,598.12797 439.891,598.12797 C 431.64129,598.12797 430.6708,590.20188 430.6708,583.73158 C 430.6708,567.55578 439.891,568.68808 452.34641,568.20277 z M 476.93361,549.92418 C 476.93361,533.42488 472.8896,519.67549 441.0233,519.67549 C 431.31779,519.67549 423.06821,521.13128 417.40672,525.49866 C 411.58341,529.54268 408.0247,536.65997 408.0247,547.49777 L 432.77372,547.49777 C 432.77372,540.38049 433.42071,533.74838 442.1556,533.74838 C 451.21412,533.74838 452.34641,539.40987 452.34641,547.01246 L 452.34641,553.96807 C 429.0532,553.64457 405.92179,554.93868 405.92179,584.86388 C 405.92179,600.55437 412.39222,613.65678 429.862,613.65678 C 440.69981,613.65678 448.14072,609.12758 453.47871,599.90738 L 453.80221,599.90738 L 454.93451,611.87749 L 478.2276,611.87749 C 477.74242,606.37768 477.0953,600.55437 476.93361,595.05457 L 476.93361,549.92418"
         style="fill:#211d1e;fill-rule:evenodd;stroke:none"
         id="path4301" />
      <path
         d="M 504.4324,645.52308 L 530.79889,645.52308 L 565.57691,521.45478 L 541.15139,521.29297 L 527.72549,585.02556 L 527.24031,585.02556 L 514.46141,521.45478 L 489.3889,521.45478 L 513.9761,612.68616 L 504.4324,645.52308"
         style="fill:#211d1e;fill-rule:nonzero;stroke:none"
         id="path4303" />
      <path
         d="M 612.3249,598.12797 C 603.9135,598.12797 602.29589,588.58427 602.29589,565.77649 C 602.29589,547.65958 601.9724,535.20417 612.3249,535.20417 C 623.32452,535.20417 623.1627,547.65958 623.1627,565.77649 C 623.1627,588.58427 621.5451,598.12797 612.3249,598.12797 z M 577.0617,611.87749 L 601.00191,611.87749 L 601.00191,601.84849 L 601.32541,601.84849 C 606.01641,610.58338 612.97202,613.65678 622.51571,613.65678 C 648.55871,613.65678 647.7499,584.70207 647.7499,565.93817 C 647.7499,547.65958 648.39689,519.67549 623.1627,519.67549 C 613.9425,519.67549 607.7957,522.26358 602.61952,530.02799 L 602.29589,530.02799 L 602.29589,482.47106 L 577.0617,482.47106 L 577.0617,611.87749"
         style="fill:#211d1e;fill-rule:evenodd;stroke:none"
         id="path4305" />
      <path
         d="M 700.96831,597.48097 C 691.58631,597.48097 689.32171,591.65767 689.32171,563.99707 C 689.32171,545.23317 690.13051,535.68948 700.96831,535.68948 C 711.64431,535.68948 712.61481,545.23317 712.61481,563.99707 C 712.61481,591.65767 710.18851,597.48097 700.96831,597.48097 z M 700.96831,613.65678 C 733.48161,613.65678 737.68731,593.76058 737.68731,565.45286 C 737.68731,540.70398 734.12861,519.67549 700.96831,519.67549 C 667.80791,519.51368 664.08751,540.70398 664.08751,565.45286 C 664.08751,593.76058 668.45491,613.65678 700.96831,613.65678"
         style="fill:#211d1e;fill-rule:evenodd;stroke:none"
         id="path4307" />
      <path
         d="M 787.99401,580.17287 L 803.68451,611.87749 L 832.15391,611.87749 L 806.27261,564.64406 L 830.37461,521.29297 L 805.14031,521.29297 L 789.93511,548.79188 L 776.83271,521.45478 L 748.52511,521.45478 L 773.11231,564.48238 L 746.42221,611.87749 L 771.49471,611.87749 L 787.99401,580.17287"
         style="fill:#211d1e;fill-rule:nonzero;stroke:none"
         id="path4309" />
      <path
         d="M 354.64461,598.12797 C 346.23321,598.12797 344.6156,588.58427 344.6156,565.77649 C 344.6156,547.65958 344.45379,535.20417 354.80629,535.20417 C 365.6441,535.20417 365.48241,547.65958 365.3206,565.77649 C 365.3206,588.58427 363.86481,598.12797 354.64461,598.12797 z M 319.38141,521.29297 L 319.38141,645.52308 L 344.6156,645.52308 L 344.6156,603.30428 C 350.11541,611.06869 356.26221,613.65678 365.48241,613.65678 C 390.7166,613.65678 390.06961,585.51087 390.06961,567.23228 C 390.06961,548.63007 390.87842,519.67549 364.83529,519.67549 C 355.2916,519.67549 348.33599,522.58708 343.64512,531.48378 L 343.32149,521.45478 L 319.38141,521.29297"
         style="fill:#211d1e;fill-rule:evenodd;stroke:none"
         id="path4311" />
      <path
         d="M 676.70461,322.65426 C 676.70461,383.79877 660.85231,438.63466 634.16219,484.25048 L 693.68911,484.25048 C 721.67331,436.69369 737.52551,381.37236 737.52551,322.65426 C 737.52551,263.93616 721.67331,208.61496 693.68911,161.05817 L 634.16219,161.05817 C 660.85231,206.67386 676.70461,261.50976 676.70461,322.65426"
         style="fill:#211d1e;fill-rule:nonzero;stroke:none"
         id="path4313" />
      <path
         d="M 565.25341,323.46306 C 565.25341,372.47578 552.4745,416.63568 531.12252,453.19299 L 578.84099,453.19299 C 601.32541,415.01808 614.10432,370.53468 614.10432,323.46306 C 614.10432,276.39158 601.32541,231.90805 578.84099,193.73327 L 531.12252,193.73327 C 552.4745,230.29058 565.25341,274.45048 565.25341,323.46306"
         style="fill:#211d1e;fill-rule:nonzero;stroke:none"
         id="path4315" />
      <path
         d="M 468.19859,322.81607 C 468.19859,361.15267 458.16959,395.60706 441.50861,424.07646 L 478.7129,424.07646 C 496.3445,394.31308 506.3735,359.69688 506.3735,322.81607 C 506.3735,285.93527 496.3445,251.31907 478.7129,221.39387 L 441.50861,221.55556 C 458.16959,250.02496 468.19859,284.47948 468.19859,322.81607"
         style="fill:#211d1e;fill-rule:nonzero;stroke:none"
         id="path4317" />
      <path
         d="M 817.43391,128.54488 L 203.88619,128.54488 C 191.10742,128.54488 179.29899,133.55925 170.24061,142.45596 C 161.18209,151.51448 156.3294,163.48458 156.3294,176.26336 L 156.3294,625.30339 C 156.3294,638.08217 161.3439,650.05227 170.40229,659.11079 C 179.29899,668.00736 191.2691,673.02186 203.88619,672.86018 L 817.43391,672.86018 C 830.21281,673.02186 842.02111,668.00736 851.07961,659.11079 C 860.13801,650.05227 864.99081,638.08217 864.99081,625.30339 L 864.99081,176.26336 C 864.99081,149.89687 843.63871,128.54488 817.43391,128.54488 z M 856.74111,625.30339 C 856.74111,646.97887 839.27131,664.77228 817.43391,664.61047 L 203.88619,664.61047 C 182.0489,664.77228 164.57911,646.97887 164.57911,625.30339 L 164.57911,176.26336 C 164.57911,154.42606 182.0489,136.79447 203.88619,136.79447 L 817.43391,136.79447 C 839.27131,136.79447 856.74111,154.42606 856.74111,176.26336 L 856.74111,625.30339"
         style="fill:#fffeff;fill-rule:nonzero;stroke:none"
         id="path4319" />
    </g>
  </g>
</svg>
